<?xml version="1.0" encoding="utf-8"?>
<!-- Generator: Adobe Illustrator 23.0.2, SVG Export Plug-In . SVG Version: 6.00 Build 0)  -->
<svg version="1.1" id="Layer_1" xmlns="http://www.w3.org/2000/svg" xmlns:xlink="http://www.w3.org/1999/xlink" x="0px" y="0px"
	 viewBox="0 0 20.4 20.4" style="enable-background:new 0 0 20.4 20.4;" xml:space="preserve">
<path id="Icon_ionic-ios-arrow-dropdown-circle" style="fill:#C9252C;" d="M10.2,20.2c5.5,0,10-4.5,10-10s-4.5-10-10-10
	s-10,4.5-10,10S4.7,20.2,10.2,20.2C10.2,20.2,10.2,20.2,10.2,20.2z M8.1,6.3C7.8,6,7.8,5.4,8.1,5c0.2-0.2,0.4-0.3,0.7-0.3
	C9,4.7,9.3,4.8,9.4,5l4.5,4.5c0.3,0.4,0.3,0.9,0,1.3l-4.6,4.6C9,15.8,8.4,15.9,8,15.5c-0.4-0.3-0.4-0.9-0.1-1.3c0,0,0.1-0.1,0.1-0.1
	l3.9-3.9L8.1,6.3z"/>
</svg>
