<?xml version="1.0" encoding="utf-8"?>
<!-- Generator: Adobe Illustrator 23.0.2, SVG Export Plug-In . SVG Version: 6.00 Build 0)  -->
<svg version="1.1" id="Layer_1" xmlns="http://www.w3.org/2000/svg" xmlns:xlink="http://www.w3.org/1999/xlink" x="0px" y="0px"
	 viewBox="0 0 26 31" style="enable-background:new 0 0 26 31;" xml:space="preserve">
<g id="Ellipse_26" transform="translate(508 4159)">
	<circle style="fill:#FFFFFF;" cx="-495" cy="-4144" r="13"/>
	<circle style="fill:none;stroke:#211B1D;stroke-width:2;" cx="-495" cy="-4144" r="12"/>
</g>
<g style="enable-background:new    ;">
	<path style="fill:#211B1D;" d="M11.6,9.8c0-1,0.8-1.8,1.7-1.8s1.8,0.8,1.8,1.8c0,1-0.8,1.7-1.8,1.7S11.6,10.8,11.6,9.8z M11.7,14.6
		c0-0.2,0.2-0.4,0.4-0.4h2.4c0.2,0,0.4,0.2,0.4,0.4v8c0,0.2-0.2,0.4-0.4,0.4h-2.4c-0.2,0-0.4-0.2-0.4-0.4V14.6z"/>
</g>
</svg>
