<?xml version="1.0" encoding="utf-8"?>
<!-- Generator: Adobe Illustrator 23.0.2, SVG Export Plug-In . SVG Version: 6.00 Build 0)  -->
<svg version="1.1" id="Layer_1" xmlns="http://www.w3.org/2000/svg" xmlns:xlink="http://www.w3.org/1999/xlink" x="0px" y="0px"
	 viewBox="0 0 40 40" style="enable-background:new 0 0 40 40;" xml:space="preserve">
<g id="Group_27551" transform="translate(-1107.588 -8778)">
	<circle id="Ellipse_31" style="fill:#C9252C;" cx="1127.6" cy="8798" r="20"/>
	<path id="Icon_material-phone-iphone" style="fill:#FFFFFF;" d="M1131.9,8786.2h-8.5c-1.5,0-2.7,1.2-2.7,2.7v18.2
		c0,1.5,1.2,2.7,2.7,2.7h8.5c1.5,0,2.7-1.2,2.7-2.7v-18.2C1134.5,8787.4,1133.3,8786.2,1131.9,8786.2z M1127.6,8808.7
		c-0.9,0-1.6-0.7-1.6-1.6s0.7-1.6,1.6-1.6s1.6,0.7,1.6,1.6l0,0C1129.2,8808,1128.5,8808.7,1127.6,8808.7z M1132.4,8804.4h-9.6v-15
		h9.6V8804.4z"/>
</g>
</svg>
