<?xml version="1.0" encoding="utf-8"?>
<!-- Generator: Adobe Illustrator 23.0.2, SVG Export Plug-In . SVG Version: 6.00 Build 0)  -->
<svg version="1.1" id="Layer_1" xmlns="http://www.w3.org/2000/svg" xmlns:xlink="http://www.w3.org/1999/xlink" x="0px" y="0px"
	 viewBox="0 0 40 40" style="enable-background:new 0 0 40 40;" xml:space="preserve">
<g id="Group_27550" transform="translate(-1107.588 -8714)">
	<circle id="Ellipse_30" style="fill:#C9252C;" cx="1127.6" cy="8734" r="20"/>
	<path id="Icon_awesome-envelope" style="fill:#FFFFFF;" d="M1136.7,8731.6c0.1-0.1,0.2-0.1,0.3,0c0,0,0,0.1,0,0.1v7.6
		c0,1-0.8,1.8-1.8,1.8l0,0h-15.4c-1,0-1.8-0.8-1.8-1.8c0,0,0,0,0,0v-7.5c0-0.1,0.1-0.2,0.2-0.2c0,0,0.1,0,0.1,0
		c0.8,0.6,1.9,1.5,5.7,4.2c0.8,0.6,2.1,1.8,3.4,1.8c1.3,0,2.7-1.2,3.4-1.8C1134.8,8733.1,1135.9,8732.2,1136.7,8731.6z
		 M1127.6,8736.4c0.9,0,2.1-1.1,2.7-1.5c4.9-3.6,5.3-3.9,6.4-4.8c0.2-0.2,0.3-0.4,0.3-0.7v-0.7c0-1-0.8-1.8-1.8-1.8h-15.4
		c-1,0-1.8,0.8-1.8,1.8v0.7c0,0.3,0.1,0.5,0.3,0.7c1.1,0.9,1.5,1.2,6.4,4.8C1125.5,8735.3,1126.7,8736.4,1127.6,8736.4
		L1127.6,8736.4z"/>
</g>
</svg>
