<?xml version="1.0" encoding="utf-8"?>
<!-- Generator: Adobe Illustrator 23.0.2, SVG Export Plug-In . SVG Version: 6.00 Build 0)  -->
<svg version="1.1" id="Layer_1" xmlns="http://www.w3.org/2000/svg" xmlns:xlink="http://www.w3.org/1999/xlink" x="0px" y="0px"
	 viewBox="0 0 203.7 218.6" style="enable-background:new 0 0 203.7 218.6;" xml:space="preserve">
<path id="institutpasteur_62096" style="fill:#3B4A5E;" d="M0,163.9l101.9,54.6l101.9-54.6V54.6L101.9,0L0,54.6L0,163.9z"/>
<g style="enable-background:new    ;">
	<path style="fill:#FFFFFF;" d="M77.4,96.2c-0.6,1.4-1.8,3.8-3.7,7.2c-2,3.6-3.6,6.8-4.9,9.5c-1.3,2.7-2.3,5.8-3.3,9.2
		c-0.9,3.5-1.4,7-1.4,10.8l0.1,2.5c0.1,1.3,0.2,2.5,0.2,3.5c0,1.5-0.5,2.8-1.4,3.9c-1,1-2.3,1.6-4,1.6c-1.8,0-3.2-0.6-4.1-1.8
		c-0.9-1.2-1.4-2.8-1.4-4.8c0-3.1,0.7-6.3,2-9.5c1.4-3.2,3-6.2,4.8-9c1.9-2.8,4.3-6.1,7.3-10.1c0.6-0.9,1.2-1.7,1.9-2.6
		c0.7-0.9,1.4-1.9,2.2-2.9H52c-1.4,0-2.4,0.1-3,0.3c-0.7,0.2-1.1,0.5-1.4,1c-0.3,0.4-0.5,1.2-0.6,2.1h-1.6c0-6-0.1-10.3-0.3-12.8
		c1.1,0.3,4.8,0.4,11.2,0.4h21.1V96.2z"/>
	<path style="fill:#FFFFFF;" d="M106.7,104.3c-1-0.2-4.5-0.4-10.4-0.4H84.7l-1.2,12.8c2.9-2,6.7-3,11.3-3c4.8,0,8.4,1.1,10.9,3.3
		c2.5,2.2,3.7,5.1,3.7,8.6c0,3.7-1.5,7-4.3,9.9c-2.9,2.9-6.6,5.1-11.2,6.6c-4.6,1.5-9.3,2.3-14.1,2.3V143c3.1-0.1,6.1-0.7,9-2.1
		c2.9-1.3,5.1-3.3,6.9-5.8c1.7-2.6,2.6-5.6,2.6-9.1c0-3.1-0.7-5.6-2.2-7.2c-1.5-1.7-3.6-2.5-6.4-2.5c-1.4,0-2.5,0.2-3.6,0.5
		c-1,0.4-2.1,0.9-3.1,1.7l-1-0.7l2.4-23.5c1,0.2,2.3,0.3,4,0.3h12.4c1.4,0,2.5-0.2,3-0.6c0.6-0.4,0.9-1.2,1.1-2.3h1.6
		C106.4,97.5,106.5,101.7,106.7,104.3z"/>
</g>
<g style="enable-background:new    ;">
	<path style="fill:#FFFFFF;" d="M141.9,76.9c1.3,1.3,1.9,3,1.9,5.2c0,1.5-0.3,2.7-0.9,3.8c-0.6,1.1-1.5,2-2.5,2.6s-2.3,0.9-3.6,0.9
		c-2.1,0-3.8-0.6-5.2-1.9s-2-3-2-5.2c0-1.4,0.3-2.7,0.9-3.8c0.6-1.1,1.5-2,2.6-2.6c1.1-0.6,2.3-0.9,3.7-0.9
		C138.9,75,140.6,75.6,141.9,76.9z M157.5,72.8l-25.6,37.9l-0.8-0.6l25.6-37.9L157.5,72.8z M133.8,82.3c0,2.1,0.3,3.7,0.8,4.8
		s1.3,1.6,2.2,1.6c1.9,0,2.8-2.2,2.8-6.5c0-2.1-0.3-3.7-0.8-4.8c-0.5-1.1-1.2-1.6-2.2-1.6C134.8,75.8,133.8,78,133.8,82.3z
		 M156.6,96.3c1.3,1.3,1.9,3,1.9,5.2c0,1.5-0.3,2.7-0.9,3.8c-0.6,1.1-1.5,2-2.5,2.6c-1.1,0.6-2.3,0.9-3.6,0.9
		c-2.1,0-3.8-0.6-5.2-1.9c-1.3-1.3-2-3-2-5.2c0-1.4,0.3-2.7,0.9-3.8c0.6-1.1,1.5-2,2.6-2.6s2.3-0.9,3.7-0.9
		C153.6,94.4,155.3,95,156.6,96.3z M148.5,101.7c0,2.1,0.3,3.7,0.8,4.8c0.5,1.1,1.3,1.6,2.2,1.6c1.9,0,2.8-2.2,2.8-6.5
		c0-2.1-0.3-3.7-0.8-4.8c-0.5-1.1-1.2-1.6-2.2-1.6C149.5,95.2,148.5,97.4,148.5,101.7z"/>
</g>
</svg>
