<svg xmlns="http://www.w3.org/2000/svg" width="22.381" height="28.373" viewBox="0 0 22.381 28.373"><g transform="translate(-1175.964 -2671.314)"><g transform="translate(1176.964 2672.314)"><path d="M67.739,52.108v9.9a1.231,1.231,0,0,1-1.193,1.232h-12.2a1.23,1.23,0,0,1-1.193-1.232V38.063a1.2,1.2,0,0,1,1.193-1.193h12.2a1.2,1.2,0,0,1,1.193,1.193v2.959" transform="translate(-53.156 -36.87)" fill="none" stroke="#c9252c" stroke-linecap="round" stroke-linejoin="round" stroke-width="2"/><line x2="13.439" transform="translate(0.36 21.168)" fill="none" stroke="#c9252c" stroke-linecap="round" stroke-linejoin="round" stroke-width="2"/><line x2="1.983" transform="translate(6.3 23.696)" fill="none" stroke="#c9252c" stroke-linecap="round" stroke-linejoin="round" stroke-width="2"/></g><path d="M66.507,58.1H81.23v-10.6H66.507V58.1h4.224l-2.805,2.828" transform="translate(1116.115 2629.315)" fill="none" stroke="#c9252c" stroke-linecap="round" stroke-linejoin="round" stroke-width="2"/><g transform="translate(1185.486 2680.514)"><line x2="9.007" transform="translate(0 0)" fill="none" stroke="#c9252c" stroke-linecap="round" stroke-linejoin="round" stroke-width="2"/><line x2="6.422" transform="translate(0 3.208)" fill="none" stroke="#c9252c" stroke-linecap="round" stroke-linejoin="round" stroke-width="2"/></g></g></svg>