<svg xmlns="http://www.w3.org/2000/svg" width="23.98" height="22.373" viewBox="0 0 23.98 22.373"><g transform="translate(-196.136 -225.886)"><path d="M218.784,848.114h0a1.271,1.271,0,0,0-1.332,1.2v.606a1.36,1.36,0,0,1-1.36,1.36h-15.93a1.36,1.36,0,0,1-1.36-1.36v-.606a1.271,1.271,0,0,0-1.332-1.2h0a1.271,1.271,0,0,0-1.332,1.2v1.967h0a2.542,2.542,0,0,0,2.665,2.4h18.65a2.542,2.542,0,0,0,2.665-2.4h0v-1.967A1.271,1.271,0,0,0,218.784,848.114Z" transform="translate(0 -605.42)" fill="#c9252c"/><path d="M361.983,234.212h0a1.337,1.337,0,0,0-1.891,0l-4.065,4.065v-10.81a1.58,1.58,0,0,0-1.58-1.58h0a1.58,1.58,0,0,0-1.58,1.58v10.81l-4.065-4.065a1.337,1.337,0,0,0-1.891,0h0a1.337,1.337,0,0,0,0,1.891l5.645,5.645,1,1a1.264,1.264,0,0,0,1.787,0l1-1,5.645-5.645A1.337,1.337,0,0,0,361.983,234.212Z" transform="translate(-146.321 0)" fill="#c9252c"/></g></svg>