<svg xmlns="http://www.w3.org/2000/svg" xmlns:xlink="http://www.w3.org/1999/xlink" width="65.33" height="57.638" viewBox="0 0 65.33 57.638">
  <defs>
    <filter id="Path_9117" x="0" y="0" width="65.33" height="57.638" filterUnits="userSpaceOnUse">
      <feOffset dy="3" input="SourceAlpha"/>
      <feGaussianBlur stdDeviation="3" result="blur"/>
      <feFlood flood-opacity="0.161"/>
      <feComposite operator="in" in2="blur"/>
      <feComposite in="SourceGraphic"/>
    </filter>
  </defs>
  <g id="Group_27421" data-name="Group 27421" transform="translate(9 6)">
    <g transform="matrix(1, 0, 0, 1, -9, -6)" filter="url(#Path_9117)">
      <path id="Path_9117-2" data-name="Path 9117" d="M488.639,49.892l.68,1.586a33.171,33.171,0,0,0-7.777,4.3,19.942,19.942,0,0,0-4.907,5.814,25.483,25.483,0,0,0-3.624,10.57,11.48,11.48,0,0,1,3.548-.679,9.59,9.59,0,0,1,6.8,2.454A8.306,8.306,0,0,1,486,80.319a8.99,8.99,0,0,1-2.643,6.493,8.532,8.532,0,0,1-6.342,2.718,8.81,8.81,0,0,1-7.324-3.624q-2.793-3.624-2.794-9.589a26.266,26.266,0,0,1,2.831-11.665,27.021,27.021,0,0,1,7.512-9.475A26.724,26.724,0,0,1,488.639,49.892Zm-24.906,0,.679,1.586a32.015,32.015,0,0,0-7.814,4.3,21.284,21.284,0,0,0-4.945,5.814,27.016,27.016,0,0,0-3.624,10.57,12.18,12.18,0,0,1,3.624-.679,9.455,9.455,0,0,1,6.757,2.454,8.366,8.366,0,0,1,2.6,6.38,9.058,9.058,0,0,1-2.6,6.493,8.411,8.411,0,0,1-6.3,2.718,8.81,8.81,0,0,1-7.324-3.624q-2.794-3.624-2.794-9.589a26.266,26.266,0,0,1,2.831-11.665,27.024,27.024,0,0,1,7.512-9.475A26.726,26.726,0,0,1,463.732,49.892Z" transform="translate(-432.99 -43.89)" fill="#fff"/>
    </g>
  </g>
</svg>
