<svg id="Group_27233" data-name="Group 27233" xmlns="http://www.w3.org/2000/svg" width="105.912" height="69.969" viewBox="0 0 105.912 69.969">
  <path id="Path_9007" data-name="Path 9007" d="M111.577,221.479c-19.4-5.331-38.233-26.822-31.8-50.605,3.47-12.828,14.927-20.632,27.742-19.162a25.939,25.939,0,0,1,22.573,23.83A25.628,25.628,0,0,1,110,202.341c-2.727.611-5.6.55-8.859.838C101.456,210.768,105.646,216.417,111.577,221.479Z" transform="translate(-24.226 -151.51)" fill="#c9252c"/>
  <path id="Path_9008" data-name="Path 9008" d="M230.414,221.26c-19.876-5.551-33.636-24.431-32.529-44.19.728-13,10.059-23.646,22.213-25.344a25.725,25.725,0,1,1,2.039,51.168c-.513-.03-1.029,0-1.933,0C220.924,210.623,224.727,216.445,230.414,221.26Z" transform="translate(-197.823 -151.481)" fill="#c9252c"/>
</svg>
